<?xml version="1.0" standalone="no"?><!DOCTYPE svg PUBLIC "-//W3C//DTD SVG 1.1//EN" "http://www.w3.org/Graphics/SVG/1.1/DTD/svg11.dtd"><svg t="1500454561419" class="icon" style="" viewBox="0 0 1024 1024" version="1.1" xmlns="http://www.w3.org/2000/svg" p-id="7290" xmlns:xlink="http://www.w3.org/1999/xlink" width="200" height="200"><defs><style type="text/css"></style></defs><path d="M806.338678 120.518864 217.660298 120.518864c-53.56394 0-97.141434 43.577494-97.141434 97.141434l0 588.67838c0 53.56394 43.577494 97.142457 97.141434 97.142457L806.338678 903.481136c53.56394 0 97.142457-43.577494 97.142457-97.142457L903.481136 217.660298C903.480112 164.096359 859.902618 120.518864 806.338678 120.518864zM874.485755 806.338678c0 37.576827-30.571273 68.147076-68.147076 68.147076L217.660298 874.485755c-37.575804 0-68.147076-30.571273-68.147076-68.147076L149.513222 217.660298c0-37.575804 30.571273-68.147076 68.147076-68.147076L806.338678 149.513222c37.576827 0 68.147076 30.571273 68.147076 68.147076L874.485755 806.338678z" p-id="7291"></path><path d="M439.334004 643.36898c-1.400906-4.14439-2.866281-7.791453-4.358261-10.844999l-0.163729-0.300852c-6.495948-10.81123-14.015202-11.562337-19.179828-10.283204l-0.525979 0.168846c-4.209882 1.692548-7.005554 4.295839-8.311293 7.738241-1.532913 4.043083-0.89744 8.798387 1.943258 14.531971 16.821107 40.682561 29.595039 76.16775 37.96773 105.470123l0.128937 0.379647c2.952238 7.397481 8.277524 11.308557 15.220656 11.307533 1.296529 0 2.651386-0.1361 4.056386-0.411369l0.369414-0.072655 0.348947-0.141216c8.951883-3.614317 12.097526-10.782577 8.662287-19.695574C468.360084 711.457728 456.19502 678.540014 439.334004 643.36898z" p-id="7292"></path><path d="M443.638029 447.034383c11.830443-4.78805 11.790534-12.874215 10.708899-17.279548l-0.107447-0.437975-0.203638-0.403183c-2.566452-5.073552-7.970532-10.655687-19.135826-8.455579l-25.638937 6.40385-0.176009 0.048095c-23.465434 7.034207-39.260166 11.543917-47.921429 13.679557l0-86.514399 70.261227 0c15.051811 0 16.676821-10.178827 16.676821-14.555507 0-4.376681-1.62501-14.556531-16.676821-14.556531l-70.261227 0 0-72.381517c0-15.050788-10.17985-16.675798-14.556531-16.675798-4.376681 0-14.555507 1.62501-14.555507 16.675798l0 72.381517-70.261227 0c-15.050788 0-16.675798 10.17985-16.675798 14.556531 0 4.376681 1.62501 14.555507 16.675798 14.555507l70.261227 0 0 94.492094c-8.173147 1.421372-18.499329 3.374864-30.800493 5.829775-20.206204 4.325515-34.68087 7.084349-44.252877 8.433066l-0.361227 0.051165-0.345877 0.116657c-12.742209 4.28049-15.417131 11.31879-15.417131 16.470113l0 0.477884 0.11461 0.464581c1.288343 5.242398 5.574972 11.491729 18.682501 11.491729l0.460488-0.026606c22.674419-2.65855 46.846958-7.249101 71.92103-13.658068l0 90.136903c-0.394996 4.364401-1.837858 7.205099-4.408403 8.680706-4.16588 2.393513-13.898545 2.975774-36.586267-7.838525l-0.2415-0.105401c-10.779507-4.28049-17.488303-0.731664-21.218254 2.99931l-0.369414 0.427742c-2.761903 3.689019-3.906983 7.349385-3.403516 10.882861 0.50449 3.538593 2.63092 6.733355 6.320962 9.495258l0.264013 0.197498 0.292666 0.151449c19.110243 9.853415 35.028794 14.748912 48.126091 14.748912 6.467295-0.001023 12.248975-1.194198 17.383926-3.574409 11.342326-5.257747 19.031449-16.321734 22.850427-32.882921l0.101307-0.438998 0-99.44592c15.125489-5.343705 35.512818-11.407817 60.615543-18.032702C433.254541 450.757171 440.410522 448.603111 443.638029 447.034383z" p-id="7293"></path><path d="M320.520991 617.870236l-0.348947-0.141216-0.369414-0.072655c-5.246491-1.027399-14.735609-0.677429-19.355837 13.236466l-0.119727 0.445138c-8.330736 40.287565-22.432918 76.962859-41.915645 109.008716l-0.157589 0.285502c-6.967692 13.936407 0.610914 21.173229 5.747911 24.245194l0.50756 0.303922 0.574075 0.14224c1.274016 0.314155 2.541893 0.470721 3.802606 0.470721 5.915733 0 11.68411-3.455705 17.191544-10.316973l0.194428-0.242524 0.154519-0.271176c17.049305-29.835516 32.159444-68.669986 44.910862-115.423823l0.086981-0.400113C333.568145 626.065895 326.678224 620.35687 320.520991 617.870236z" p-id="7294"></path><path d="M761.369487 721.29784c-26.897603-45.270043-49.117674-78.952166-66.045205-100.111069l-0.004093-0.005117c-6.877641-8.569166-15.47546-10.397814-24.203238-5.155417l-0.332575 0.224104c-3.365654 2.51938-5.29561 5.570879-5.739724 9.071609-0.527003 4.169973 1.163499 8.722662 4.993734 13.493316 25.190729 32.210609 47.907103 66.285682 67.51979 101.277638l0.060375 0.103354c3.381004 5.627161 7.895831 8.506744 13.013385 8.506744 2.956332 0 6.113231-0.960885 9.368368-2.908236l0.419556-0.25071 0.345877-0.346901c5.558599-5.558599 5.808286-13.513782 0.740874-23.647583L761.369487 721.29784z" p-id="7295"></path><path d="M574.966077 626.251114l-0.058328-0.121773c-6.945179-13.891382-16.742313-12.466939-21.964244-10.385535l-0.311085 0.140193c-5.27719 2.653433-10.638291 8.582469-6.212492 21.75549l0.105401 0.314155 0.156566 0.293689c20.900006 39.022759 34.31862 74.30431 39.883359 104.863303l0.070608 0.388856 0.146333 0.36839c2.951215 7.397481 8.276501 11.307533 15.220656 11.307533 1.296529 0 2.651386-0.1361 4.056386-0.411369l0.369414-0.072655 0.348947-0.141216c5.235235-2.114151 13.31833-7.766894 8.66024-21.794375C604.107791 695.979198 590.490655 660.146085 574.966077 626.251114z" p-id="7296"></path><path d="M762.210645 456.43038c-9.250688 0-14.556531 5.305843-14.556531 14.556531 0 31.439036-1.410116 56.017828-4.193509 73.055876-2.550079 15.612583-5.814426 22.453385-8.337899 25.428136-20.409842-24.378224-32.790824-75.345012-36.812417-151.60486-0.016373-3.422959-0.714268-33.224706-2.089591-91.925642l-0.030699-1.312902c-0.01842-23.192212-13.030781-36.273135-37.632085-37.824467l-85.146239-0.008186c0.25071-3.341095 0.785899-9.078773 1.889023-18.931165l0.024559-19.523659c0-9.250688-5.304819-14.556531-14.556531-14.556531-11.939937 0-15.500019 7.196912-16.560164 11.487635l-0.115634 0.467651 0 0.480954c0 23.64042-0.709151 35.087123-1.463328 40.575114l-81.520665 0c-9.250688 0-14.556531 5.305843-14.556531 14.556531 0 9.250688 5.305843 14.556531 14.556531 14.556531l80.599689 0c-2.701528 40.632419-7.18054 76.358085-13.331633 106.350167-2.51631-1.760087-5.745864-4.221138-9.661034-7.365758l-0.414439-0.291642c-25.340131-15.474436-46.765093-28.329209-63.680345-38.207184l-0.234337-0.12689c-7.362688-3.65832-14.381545-1.739621-19.761066 5.403057l-0.480954 0.638543-0.195451 0.775666c-1.26583 5.034666-0.936325 12.413727 7.826246 18.97312l0.404206 0.26606c19.243273 11.024078 45.396933 28.870538 77.765131 53.06252-20.926612 52.768831-55.685253 94.690616-103.34881 124.635625l-0.364297 0.258896c-11.852956 9.471722-8.17724 18.119683-4.931313 22.431895l0.355087 0.409322c2.843768 2.860141 6.9022 5.436826 12.302187 5.436826 3.918239 0 8.543583-1.356904 13.921058-4.948709 47.044456-31.828916 83.819011-75.635631 109.369943-130.263809 50.958602 47.016827 80.887238 75.619258 88.977497 85.036745l0.194428 0.210801c3.818979 3.842515 7.664563 5.652743 11.472286 5.389754 3.422959-0.240477 6.507204-2.119267 9.171893-5.586229 3.798513-3.928472 6.836709-10.8143 0.396019-21.583574l-0.184195-0.308015-0.236384-0.26913c-19.664875-22.427802-53.419653-54.826699-100.346429-96.315626 6.621814-27.741831 11.394515-69.429279 14.195304-124.010385l78.936817 0c10.605545 0 15.129582 4.52506 15.129582 15.129582l0.004093 0.183172c1.972934 42.575678 4.236488 91.876524 4.236488 95.236038l0.00307 0.173962c2.127454 48.235584 8.263198 87.319741 18.23327 116.166743 10.190083 29.481452 24.747637 49.306986 43.267433 58.922994l0.496304 0.257873 0.548492 0.109494c8.024767 1.607614 15.152095-0.12382 21.187555-5.145184 17.120936-14.250562 24.916483-55.471382 23.831778-125.956713C776.766153 461.736223 771.461333 456.43038 762.210645 456.43038z" p-id="7297"></path></svg>